name GIL12_free4.mot
datacolumns 153
datarows 4
range 0.78333336 0.80833340
endheader

                time	           pelvis_tx	           pelvis_ty	           pelvis_tz	         pelvis_tilt	         pelvis_list	     pelvis_rotation	       hip_flexion_r	     hip_adduction_r	      hip_rotation_r	        knee_angle_r	       ankle_angle_r	    subtalar_angle_r	         mtp_angle_r	       hip_flexion_l	     hip_adduction_l	      hip_rotation_l	        knee_angle_l	       ankle_angle_l	    subtalar_angle_l	         mtp_angle_l	    lumbar_extension	      lumbar_bending	     lumbar_rotation	     ground_force_vx	     ground_force_vy	     ground_force_vz	     ground_force_px	     ground_force_py	     ground_force_pz	     ground_force_vx	     ground_force_vy	     ground_force_vz	     ground_force_px	     ground_force_py	     ground_force_pz	     ground_torque_x	     ground_torque_y	     ground_torque_z	     ground_torque_x	     ground_torque_y	     ground_torque_z	    ground_marker_px	    ground_marker_py	    ground_marker_pz	    ground_marker_px	    ground_marker_py	    ground_marker_pz	    ground_marker_px	    ground_marker_py	    ground_marker_pz	    ground_marker_px	    ground_marker_py	    ground_marker_pz	    ground_marker_px	    ground_marker_py	    ground_marker_pz	    ground_marker_px	    ground_marker_py	    ground_marker_pz	    ground_marker_px	    ground_marker_py	    ground_marker_pz	    ground_marker_px	    ground_marker_py	    ground_marker_pz	    ground_marker_px	    ground_marker_py	    ground_marker_pz	    ground_marker_px	    ground_marker_py	    ground_marker_pz	    ground_marker_px	    ground_marker_py	    ground_marker_pz	    ground_marker_px	    ground_marker_py	    ground_marker_pz	    ground_marker_px	    ground_marker_py	    ground_marker_pz	    ground_marker_px	    ground_marker_py	    ground_marker_pz	    ground_marker_px	    ground_marker_py	    ground_marker_pz	    ground_marker_px	    ground_marker_py	    ground_marker_pz	    ground_marker_px	    ground_marker_py	    ground_marker_pz	    ground_marker_px	    ground_marker_py	    ground_marker_pz	    ground_marker_px	    ground_marker_py	    ground_marker_pz	    ground_marker_px	    ground_marker_py	    ground_marker_pz	    ground_marker_px	    ground_marker_py	    ground_marker_pz	    ground_marker_px	    ground_marker_py	    ground_marker_pz	    ground_marker_px	    ground_marker_py	    ground_marker_pz	    ground_marker_px	    ground_marker_py	    ground_marker_pz	    ground_marker_px	    ground_marker_py	    ground_marker_pz	    ground_marker_px	    ground_marker_py	    ground_marker_pz	    ground_marker_px	    ground_marker_py	    ground_marker_pz	    ground_marker_px	    ground_marker_py	    ground_marker_pz	    ground_marker_px	    ground_marker_py	    ground_marker_pz	    ground_marker_px	    ground_marker_py	    ground_marker_pz	    ground_marker_px	    ground_marker_py	    ground_marker_pz	    ground_marker_px	    ground_marker_py	    ground_marker_pz	    ground_marker_px	    ground_marker_py	    ground_marker_pz	    ground_marker_px	    ground_marker_py	    ground_marker_pz	    ground_marker_px	    ground_marker_py	    ground_marker_pz	    ground_marker_px	    ground_marker_py	    ground_marker_pz	    ground_marker_px	    ground_marker_py	    ground_marker_pz	
          0.78333336	          1.53578663	          0.70196247	         -0.25892979	          5.91452503	          2.29962516	         -1.94922566	         -7.64623260	         -0.21437798	         -3.09012938	        -13.22027969	         11.31390476	          0.00000000	          0.00000000	         17.33115959	         -2.18190551	         -4.84760809	        -40.60387421	         -3.20906615	          0.00000000	          0.00000000	        -25.29163933	         -0.47473049	          7.12786055	         -2.47396476	        214.39970237	         -8.94752776	          1.49403833	          0.00000000	         -0.20919421	          0.00000000	          0.00000000	          0.00000000	          1.02419598	          0.00000000	         -0.27925458	          0.00000000	          0.24818994	          0.00000000	          0.00000000	          0.00000000	          0.00000000	          1.48739302	          0.62682027	         -0.26135999	          1.49063277	          0.63704288	         -0.20420539	          1.49510419	          0.64130265	         -0.32148787	          1.48157728	          0.33879367	         -0.21426457	          1.61681104	          0.35924715	         -0.33882242	          1.40549028	          0.05755217	         -0.21634988	          1.53520882	          0.09304982	         -0.32904086	          1.53578663	          0.70196247	         -0.25892979	          1.53236628	          0.69870406	         -0.16921668	          1.53920710	          0.70522088	         -0.34864289	          1.39704978	          0.71789151	         -0.22224270	          1.40510714	          0.71520549	         -0.30673137	          1.47735679	          0.33737767	         -0.16848049	          1.61418819	          0.36105889	         -0.38671646	          1.46846557	          0.34397471	         -0.25333354	          1.64212072	          0.36327702	         -0.30262229	          1.40357196	          0.05782316	         -0.18290594	          1.51773751	          0.09741147	         -0.35609594	          1.40729320	          0.05835954	         -0.24347278	          1.53912437	          0.09541861	         -0.29457486	          1.47428596	          1.03862238	         -0.23929982	          1.56281638	          0.95946610	         -0.20801386	          1.55555940	          0.96553314	         -0.29583800	          1.54653716	          0.97602105	         -0.24215339	          1.57503045	          0.83815700	         -0.25923491	          1.60339034	          0.42263949	         -0.22466455	          1.64611161	          0.46566778	         -0.44797534	          1.53356516	          0.47820941	         -0.17613731	          1.62537324	          0.51394659	         -0.36321166	          1.51283967	          0.39181024	         -0.17892227	          1.66089010	          0.43805003	         -0.35100555	          1.45301676	          0.12351424	         -0.11688972	          1.65688741	          0.16368648	         -0.33735505	          1.45178664	          0.19307253	         -0.17388330	          1.61572051	          0.23563585	         -0.34316331	          1.49241018	          0.03946674	         -0.21410438	          1.60231709	          0.05119776	         -0.34737605	
          0.79166669	          1.54405379	          0.70131624	         -0.25922793	          6.01551628	          2.14598417	         -1.92766380	         -8.77114582	         -0.11888283	         -3.19024086	        -12.76966095	         11.59915161	          0.00000000	          0.00000000	         17.97260284	         -2.10216475	         -4.70960569	        -37.82097244	         -2.95834827	          0.00000000	          0.00000000	        -25.62008858	         -0.35585579	          7.33529806	         -1.33056900	        216.64677446	         -8.95438767	          1.49579663	          0.00000000	         -0.20947443	          0.00000000	          0.00000000	          0.00000000	          1.02561975	          0.00000000	         -0.27896222	          0.00000000	          0.24666345	          0.00000000	          0.00000000	          0.00000000	          0.00000000	          1.49581599	          0.62607169	         -0.26138461	          1.49905097	          0.63646054	         -0.20430350	          1.50343835	          0.64042002	         -0.32159966	          1.48468828	          0.33849156	         -0.21427895	          1.62899554	          0.35939330	         -0.33771014	          1.40580547	          0.05795339	         -0.21650007	          1.56344032	          0.08794589	         -0.33080235	          1.54405379	          0.70131624	         -0.25922793	          1.54069519	          0.69828516	         -0.16943666	          1.54741228	          0.70434725	         -0.34901917	          1.40524781	          0.71712923	         -0.22233771	          1.41331005	          0.71416378	         -0.30682957	          1.48042190	          0.33716449	         -0.16849644	          1.62647021	          0.36101142	         -0.38561636	          1.47422957	          0.34294423	         -0.25235942	          1.65159631	          0.36384028	         -0.30046880	          1.40378618	          0.05825643	         -0.18306236	          1.54616153	          0.09142388	         -0.35810801	          1.40768552	          0.05882938	         -0.24366809	          1.56748843	          0.09002474	         -0.29644346	          1.48341918	          1.03779757	         -0.23934266	          1.57181644	          0.95823950	         -0.20850059	          1.56426072	          0.96440357	         -0.29636389	          1.55546868	          0.97488725	         -0.24264874	          1.58338857	          0.83692586	         -0.25988844	          1.60784817	          0.42013517	         -0.22463135	          1.65671217	          0.46583840	         -0.44640356	          1.54018497	          0.47708103	         -0.17625450	          1.63487732	          0.51421106	         -0.36185277	          1.51950681	          0.39122263	         -0.17856146	          1.67061090	          0.43849328	         -0.34891433	          1.45366561	          0.12348038	         -0.11694728	          1.68065023	          0.16653459	         -0.33675042	          1.45314574	          0.19301292	         -0.17364472	          1.63511264	          0.23543626	         -0.34269682	          1.49258518	          0.03944910	         -0.21416144	          1.63344145	          0.05061484	         -0.34872866	
          0.80000001	          1.55241048	          0.70054066	         -0.25960058	          6.10715961	          1.96377838	         -1.91924977	         -9.89433956	         -0.00850909	         -3.26400495	        -12.31415081	         11.85802555	          0.00000000	          0.00000000	         18.51577950	         -2.01271915	         -4.78485489	        -34.83245087	         -2.83821630	          0.00000000	          0.00000000	        -25.93683052	         -0.16042300	          7.59245348	         -0.07175510	        219.12751823	         -8.98364716	          1.49731665	          0.00000000	         -0.20975272	          0.00000000	          0.00000000	          0.00000000	          1.02728503	          0.00000000	         -0.27873685	          0.00000000	          0.25680853	          0.00000000	          0.00000000	          0.00000000	          0.00000000	          1.50435114	          0.62520319	         -0.26147321	          1.50753796	          0.63578618	         -0.20445080	          1.51186347	          0.63938344	         -0.32176095	          1.48783767	          0.33820343	         -0.21425800	          1.64069355	          0.35928410	         -0.33645257	          1.40615928	          0.05837563	         -0.21664415	          1.59199488	          0.08332729	         -0.33270824	          1.55241048	          0.70054066	         -0.25960058	          1.54909647	          0.69778466	         -0.16972271	          1.55572450	          0.70329672	         -0.34947845	          1.41349983	          0.71627849	         -0.22248390	          1.42158878	          0.71299678	         -0.30698153	          1.48353505	          0.33697945	         -0.16847602	          1.63811731	          0.36061224	         -0.38436499	          1.47841322	          0.34275195	         -0.25159305	          1.66156900	          0.36386999	         -0.29839185	          1.40400934	          0.05871809	         -0.18321495	          1.57491410	          0.08596814	         -0.36023134	          1.40814245	          0.05932316	         -0.24385928	          1.59593785	          0.08496412	         -0.29844543	          1.49261248	          1.03677940	         -0.23941217	          1.58083570	          0.95680207	         -0.20902419	          1.57296598	          0.96315455	         -0.29692799	          1.56443095	          0.97359973	         -0.24318458	          1.59173524	          0.83553672	         -0.26070511	          1.61234856	          0.41760981	         -0.22461008	          1.66658747	          0.46532041	         -0.44480696	          1.54660714	          0.47604594	         -0.17623229	          1.64406276	          0.51386905	         -0.36051163	          1.52489364	          0.39069968	         -0.17822567	          1.68028760	          0.43842670	         -0.34707260	          1.45425820	          0.12348782	         -0.11697825	          1.70396018	          0.16985412	         -0.33631879	          1.45455539	          0.19300616	         -0.17349276	          1.65411186	          0.23527789	         -0.34231135	          1.49274743	          0.03942136	         -0.21421424	          1.66462028	          0.05067835	         -0.35016707	
          0.80833340	          1.56087470	          0.69963574	         -0.26003921	          6.18787813	          1.75712180	         -1.93021023	        -11.02072239	          0.10947154	         -3.30521894	        -11.84232616	         12.08479214	          0.00000000	          0.00000000	         18.95739937	         -1.91743028	         -5.08743382	        -31.64643097	         -2.84366250	          0.00000000	          0.00000000	        -26.22607803	          0.04525001	          7.92089033	          1.40459910	        221.74806006	         -9.06749700	          1.49860986	          0.00000000	         -0.21001184	          0.00000000	          0.00000000	          0.00000000	          1.02923560	          0.00000000	         -0.27852353	          0.00000000	          0.28111823	          0.00000000	          0.00000000	          0.00000000	          0.00000000	          1.51299787	          0.62421715	         -0.26160949	          1.51610267	          0.63501775	         -0.20464814	          1.52040255	          0.63819784	         -0.32197124	          1.49100327	          0.33793375	         -0.21419103	          1.65189672	          0.35892075	         -0.33507016	          1.40655601	          0.05882372	         -0.21677427	          1.62076831	          0.07934447	         -0.33470050	          1.56087470	          0.69963574	         -0.26003921	          1.55757725	          0.69719714	         -0.17007162	          1.56417203	          0.70207429	         -0.35000682	          1.42181826	          0.71534586	         -0.22269310	          1.42997003	          0.71170735	         -0.30719355	          1.48667359	          0.33682892	         -0.16840859	          1.64911640	          0.35985878	         -0.38298038	          1.47972560	          0.34410071	         -0.25132415	          1.67081177	          0.36339644	         -0.29623577	          1.40424883	          0.05921249	         -0.18335608	          1.60387361	          0.08118892	         -0.36240280	          1.40863216	          0.05981776	         -0.24406369	          1.62452281	          0.08045651	         -0.30058753	          1.50181615	          1.03559160	         -0.23951742	          1.58991563	          0.95522577	         -0.20970280	          1.58166623	          0.96177286	         -0.29760057	          1.57341647	          0.97217095	         -0.24375859	          1.60014999	          0.83402079	         -0.26167777	          1.61693180	          0.41508248	         -0.22459447	          1.67574525	          0.46412423	         -0.44320703	          1.55309772	          0.47507727	         -0.17625731	          1.65295172	          0.51294637	         -0.35929546	          1.52798975	          0.39012414	         -0.17808563	          1.68937218	          0.43772370	         -0.34534562	          1.45480442	          0.12354564	         -0.11696694	          1.72669959	          0.17368801	         -0.33606344	          1.45598567	          0.19303355	         -0.17354003	          1.67271924	          0.23531947	         -0.34199759	          1.49289680	          0.03938886	         -0.21425787	          1.69571781	          0.05150286	         -0.35166898	
